<mxfile host="app.diagrams.net" modified="2024-06-20T05:05:33.794Z" agent="Mozilla/5.0 (Windows NT 10.0; Win64; x64) AppleWebKit/537.36 (KHTML, like Gecko) Chrome/124.0.0.0 Safari/537.36" version="24.4.13" etag="urP-w7dW0on2TefEA_H6" type="github">
  <diagram name="Page-1" id="9DzfOcrPfvv0zDtsalZm">
    <mxGraphModel>
      <root>
        <mxCell id="0" />
        <mxCell id="1" parent="0" />
      </root>
    </mxGraphModel>
  </diagram>
</mxfile>
